<svg width="52" height="52" viewBox="0 0 52 52" fill="none" xmlns="http://www.w3.org/2000/svg">
<path d="M8.99304 26C8.99304 21.3035 10.8967 17.0519 13.9744 13.9742C1.2466 26.702 -3.68749 42.4042 2.95441 49.0457C9.59599 55.6873 25.2981 50.7535 38.0262 38.0258C34.9486 41.1034 30.6966 43.0071 26.0005 43.0071C16.6078 43.0071 8.99337 35.3927 8.99337 26H8.99304Z" fill="white"/>
<path d="M49.0459 2.95427C42.4043 -3.68731 26.7022 1.24645 13.9741 13.9742C17.0517 10.8966 21.3037 8.9929 25.9998 8.9929C35.3925 8.9929 43.0069 16.6073 43.0069 26C43.0069 30.6965 41.1032 34.9481 38.0256 38.0258C50.7534 25.298 55.6875 9.59585 49.0455 2.95394L49.0459 2.95427Z" fill="white"/>
</svg>
