<svg width="242" height="54" viewBox="0 0 242 54" fill="none" xmlns="http://www.w3.org/2000/svg">
<path d="M27.31 53.49C13.2 53.49 0 42.04 0 27.03C0 12.02 12.15 0 27.31 0C42.47 0 54.69 12.01 54.69 26.75C54.69 41.49 42.33 53.5 27.31 53.5V53.49ZM27.24 4.68C15.01 4.68 5.17 15.01 5.17 27.03C5.17 39.05 15.3 48.82 27.31 48.82C39.32 48.82 49.52 38.69 49.52 26.82C49.52 14.95 39.67 4.68 27.24 4.68Z" fill="white"/>
<path d="M87.84 52.59L70.31 29.19H75.34C84.49 29.19 89.94 24.51 89.94 17.46C89.94 12.57 86.94 5.58997 75.06 5.58997H65.21V52.59H60.04V0.909973H75.61C89.09 0.909973 95.09 8.86997 95.09 17.6C95.09 26.33 88.8 32.61 79.73 33.31L94.33 52.58H87.84V52.59Z" fill="white"/>
<path d="M102.72 52.59V0.909973H115.99C126.81 0.909973 132.61 6.84997 132.61 14.67C132.61 18.93 131.07 21.79 126.95 25.08C132.47 27.38 135.54 32.27 135.54 37.79C135.54 44.84 131.56 52.6 118.08 52.6H102.72V52.59ZM116.06 23.19C125.98 23.19 127.44 17.46 127.44 14.46C127.44 10.62 125.21 5.58997 115.64 5.58997H107.89V23.19H116.06ZM117.66 47.91C124.29 47.91 130.37 45.26 130.37 37.78C130.37 31.91 125.27 27.86 117.66 27.86H107.88V47.9H117.66V47.91Z" fill="white"/>
<path d="M151.56 52.59V35.34L133.61 0.909973H139.34L154.08 29.89L169.23 0.909973H174.89L156.73 35.34V52.59H151.56Z" fill="white"/>
<path d="M190.76 52.59V5.58997H178.89V0.909973H207.73V5.58997H195.93V52.59H190.76Z" fill="white"/>
<path d="M213.42 52.59V0.909973H241.7V5.58997H218.58V24.17H240.93V28.85H218.58V47.92H241.7V52.6H213.42V52.59Z" fill="white"/>
</svg>
